PathFileType	4	(X/Y/Z)	 2.2Hzhigh3min.trc
DataRate	CameraRate	NumFrames	NumMarkers	Units	OrigDataRate	OrigDataStartFrame	OrigNumFrames
200	200	9	35	m	200	751	1000
Frame#	Time	C7			LSH			RSH			MAN			RASI			LASI			HIPR			HIPL			RPSI			LPSI			COX			RTHI1			RTHI2			RTHI3			RTHI4			RSHA1			RSHA2			RSHA3			RSHA4			RHEEL			RMET5			RMET1			RTOE			LTHI1			LTHI2			LTHI3			LTHI4			LSHA1			LSHA2			LSHA3			LSHA4			LHEEL			LMET5			LMET1			LTOE			
		X1	Y1	Z1	X2	Y2	Z2	X3	Y3	Z3	X4	Y4	Z4	X5	Y5	Z5	X6	Y6	Z6	X7	Y7	Z7	X8	Y8	Z8	X9	Y9	Z9	X10	Y10	Z10	X11	Y11	Z11	X12	Y12	Z12	X13	Y13	Z13	X14	Y14	Z14	X15	Y15	Z15	X16	Y16	Z16	X17	Y17	Z17	X18	Y18	Z18	X19	Y19	Z19	X20	Y20	Z20	X21	Y21	Z21	X22	Y22	Z22	X23	Y23	Z23	X24	Y24	Z24	X25	Y25	Z25	X26	Y26	Z26	X27	Y27	Z27	X28	Y28	Z28	X29	Y29	Z29	X30	Y30	Z30	X31	Y31	Z31	X32	Y32	Z32	X33	Y33	Z33	X34	Y34	Z34	X35	Y35	Z35	
751	3.7550	-0.309976	1.686988	-0.521589	-0.276411	1.663684	-0.753320	-0.258587	1.657640	-0.321604	-0.174192	1.628450	-0.538872	-0.151568	1.169913	-0.422572	-0.158215	1.163463	-0.647643	-0.208544	1.239150	-0.374677	-0.000000	0.000000	-0.000000	-0.335707	1.201671	-0.467985	-0.000000	0.000000	-0.000000	-0.346418	1.205427	-0.523076	-0.212571	0.958272	-0.337842	-0.194219	0.901908	-0.327817	-0.133391	0.914113	-0.346803	-0.143955	0.973323	-0.359760	-0.294546	0.392983	-0.314418	-0.306179	0.352816	-0.323209	-0.246664	0.341960	-0.320799	-0.239150	0.381228	-0.316464	-0.384613	0.142330	-0.373586	-0.233956	0.035732	-0.311063	-0.190704	0.046572	-0.392874	-0.160800	0.035049	-0.388807	-0.230616	0.913019	-0.738008	-0.205996	0.857333	-0.747709	-0.144247	0.877492	-0.744511	-0.160869	0.934079	-0.735460	-0.346456	0.385121	-0.732022	-0.361465	0.348698	-0.725459	-0.302862	0.328222	-0.735816	-0.294965	0.372108	-0.742476	-0.448034	0.163964	-0.667953	-0.317408	0.039042	-0.744877	-0.268991	0.044826	-0.678284	-0.241577	0.032480	-0.686696	
752	3.7600	-0.309896	1.681393	-0.521298	-0.275904	1.658094	-0.753176	-0.258683	1.651889	-0.321309	-0.174241	1.622598	-0.538576	-0.152416	1.164333	-0.422539	-0.159213	1.157854	-0.647545	-0.209421	1.233328	-0.374484	-0.000000	0.000000	-0.000000	-0.336633	1.196073	-0.467858	-0.000000	0.000000	-0.000000	-0.347427	1.199808	-0.522954	-0.212458	0.952649	-0.337485	-0.193649	0.896428	-0.327429	-0.132951	0.909037	-0.346592	-0.144027	0.968162	-0.359613	-0.293842	0.388809	-0.313928	-0.305695	0.348403	-0.322778	-0.246510	0.337219	-0.320622	-0.238567	0.376406	-0.316208	-0.386808	0.138370	-0.373152	-0.235213	0.033118	-0.310003	-0.191236	0.044731	-0.393101	-0.161215	0.033287	-0.389769	-0.231128	0.907378	-0.738189	-0.206292	0.851821	-0.748166	-0.144603	0.872259	-0.744875	-0.161471	0.928734	-0.735563	-0.346394	0.380695	-0.732856	-0.361639	0.344330	-0.726181	-0.303190	0.323480	-0.735801	-0.294929	0.367242	-0.742776	-0.450727	0.159831	-0.667921	-0.318137	0.036443	-0.745320	-0.268913	0.043562	-0.678113	-0.241228	0.031220	-0.685628	
753	3.7650	-0.309822	1.675566	-0.520988	-0.275362	1.652289	-0.753043	-0.258790	1.645925	-0.321010	-0.174263	1.616538	-0.538270	-0.153264	1.158558	-0.422506	-0.160243	1.152043	-0.647441	-0.210290	1.227279	-0.374283	-0.000000	0.000000	-0.000000	-0.337572	1.190267	-0.467767	-0.000000	0.000000	-0.000000	-0.348461	1.193980	-0.522843	-0.212384	0.946841	-0.337150	-0.193128	0.890764	-0.327006	-0.132521	0.903781	-0.346246	-0.144106	0.962819	-0.359369	-0.293299	0.384535	-0.313416	-0.305708	0.343835	-0.321838	-0.246571	0.332343	-0.320456	-0.238153	0.371428	-0.315973	-0.389369	0.134043	-0.372483	-0.236014	0.031129	-0.308814	-0.191413	0.043588	-0.393296	-0.161308	0.032133	-0.390836	-0.231688	0.901534	-0.738305	-0.206658	0.846108	-0.748552	-0.145021	0.866803	-0.745271	-0.162113	0.923168	-0.735690	-0.346582	0.376165	-0.733821	-0.362122	0.339876	-0.726948	-0.303829	0.318598	-0.735765	-0.295162	0.362211	-0.743126	-0.453833	0.155504	-0.667894	-0.318786	0.034493	-0.746079	-0.268857	0.042773	-0.678419	-0.240837	0.030448	-0.685102	
754	3.7700	-0.309748	1.669540	-0.520674	-0.274788	1.646273	-0.752931	-0.258884	1.639766	-0.320705	-0.174261	1.610297	-0.537958	-0.154099	1.152594	-0.422512	-0.161308	1.146051	-0.647341	-0.211163	1.221028	-0.374077	-0.000000	0.000000	-0.000000	-0.338546	1.184263	-0.467688	-0.000000	0.000000	-0.000000	-0.349647	1.188028	-0.522915	-0.212340	0.940866	-0.336836	-0.192657	0.884935	-0.326546	-0.132092	0.898358	-0.345745	-0.144172	0.957306	-0.359022	-0.292899	0.380114	-0.312912	-0.305884	0.340035	-0.320853	-0.246850	0.327347	-0.320328	-0.237921	0.366326	-0.315781	-0.392200	0.129506	-0.371621	-0.236519	0.029588	-0.307563	-0.191463	0.042916	-0.393415	-0.161354	0.031472	-0.391727	-0.232264	0.895501	-0.738361	-0.207086	0.840197	-0.748887	-0.145477	0.861138	-0.745705	-0.162772	0.917402	-0.735869	-0.347059	0.371634	-0.734807	-0.363010	0.335471	-0.727691	-0.304843	0.313651	-0.735699	-0.295715	0.357094	-0.743482	-0.457296	0.151179	-0.667952	-0.319667	0.033197	-0.747009	-0.269120	0.042356	-0.678986	-0.240655	0.030036	-0.684955	
755	3.7750	-0.309669	1.663344	-0.520368	-0.274188	1.640057	-0.752845	-0.258938	1.633447	-0.320392	-0.174218	1.603891	-0.537643	-0.154974	1.146451	-0.422519	-0.162380	1.139901	-0.647253	-0.212048	1.214582	-0.373859	-0.000000	0.000000	-0.000000	-0.339540	1.178059	-0.467634	-0.000000	0.000000	-0.000000	-0.350988	1.181969	-0.523161	-0.212321	0.934761	-0.336537	-0.192237	0.878995	-0.326043	-0.131683	0.892807	-0.345082	-0.144213	0.951656	-0.358569	-0.292626	0.375591	-0.312398	-0.306488	0.335138	-0.320629	-0.247325	0.322280	-0.320224	-0.237861	0.361149	-0.315635	-0.395186	0.124939	-0.370659	-0.236914	0.028361	-0.306308	-0.191624	0.042626	-0.393450	-0.161481	0.031131	-0.392279	-0.232845	0.889294	-0.738377	-0.207530	0.834089	-0.749142	-0.145953	0.855293	-0.746195	-0.163432	0.911461	-0.736120	-0.347823	0.367173	-0.735718	-0.364307	0.331231	-0.728341	-0.306231	0.308736	-0.735647	-0.296593	0.351994	-0.743827	-0.461002	0.146987	-0.668068	-0.320857	0.032293	-0.747967	-0.269772	0.042168	-0.679703	-0.240813	0.029813	-0.685062	
756	3.7800	-0.309579	1.657017	-0.520090	-0.273569	1.633658	-0.752790	-0.258957	1.626986	-0.320068	-0.174131	1.597348	-0.537333	-0.155862	1.140154	-0.422552	-0.163459	1.133617	-0.647183	-0.212945	1.207958	-0.373641	-0.000000	0.000000	-0.000000	-0.340570	1.171664	-0.467571	-0.000000	0.000000	-0.000000	-0.352480	1.175825	-0.523575	-0.212322	0.928572	-0.336240	-0.191876	0.872963	-0.325504	-0.131318	0.887177	-0.344266	-0.144231	0.945913	-0.357999	-0.292449	0.371020	-0.311865	-0.307079	0.330828	-0.320121	-0.247927	0.317199	-0.320098	-0.237924	0.355945	-0.315495	-0.398174	0.120352	-0.369811	-0.237308	0.027375	-0.305102	-0.191969	0.042532	-0.393422	-0.161768	0.030899	-0.392551	-0.233427	0.882924	-0.738369	-0.207972	0.827792	-0.749366	-0.146438	0.849287	-0.746742	-0.164094	0.905367	-0.736449	-0.348838	0.362833	-0.736545	-0.365928	0.327190	-0.728817	-0.307925	0.303923	-0.735668	-0.297752	0.346988	-0.744184	-0.464788	0.142957	-0.668325	-0.322448	0.031305	-0.748712	-0.270784	0.042082	-0.680476	-0.241336	0.029643	-0.685414	
757	3.7850	-0.309472	1.650604	-0.519861	-0.272933	1.627104	-0.752766	-0.258938	1.620409	-0.319741	-0.173991	1.590693	-0.537038	-0.156805	1.133715	-0.422562	-0.164539	1.127221	-0.647135	-0.213862	1.201176	-0.373420	-0.000000	0.000000	-0.000000	-0.341616	1.165082	-0.467510	-0.000000	0.000000	-0.000000	-0.353983	1.169515	-0.523965	-0.212362	0.922347	-0.335927	-0.191606	0.866895	-0.324928	-0.131023	0.881489	-0.343327	-0.144250	0.940106	-0.357305	-0.292337	0.366436	-0.311321	-0.307720	0.326577	-0.319637	-0.248575	0.312129	-0.319944	-0.238052	0.350738	-0.315333	-0.401060	0.115694	-0.369209	-0.237721	0.026520	-0.304003	-0.192485	0.042413	-0.393395	-0.162224	0.030661	-0.392592	-0.234013	0.876404	-0.738362	-0.208395	0.821373	-0.749552	-0.146934	0.843151	-0.747350	-0.164769	0.899141	-0.736849	-0.350019	0.358601	-0.737297	-0.367710	0.323346	-0.729217	-0.309789	0.299237	-0.735773	-0.299091	0.342106	-0.744563	-0.468554	0.138973	-0.668706	-0.324191	0.030212	-0.749327	-0.272014	0.042012	-0.681163	-0.242097	0.029508	-0.685859	
758	3.7900	-0.309346	1.644142	-0.519692	-0.272291	1.620433	-0.752770	-0.258866	1.613749	-0.319420	-0.173797	1.583955	-0.536765	-0.157771	1.127145	-0.422581	-0.165621	1.120743	-0.647114	-0.214805	1.194268	-0.373197	-0.000000	0.000000	-0.000000	-0.342683	1.158318	-0.467420	-0.000000	0.000000	-0.000000	-0.355487	1.163040	-0.524324	-0.212471	0.916134	-0.335607	-0.191463	0.860834	-0.324331	-0.130847	0.875770	-0.342296	-0.144305	0.934274	-0.356490	-0.292239	0.361850	-0.310735	-0.308311	0.322349	-0.319124	-0.249178	0.307087	-0.319757	-0.238176	0.345554	-0.315145	-0.403746	0.111013	-0.368803	-0.238138	0.025737	-0.303036	-0.193097	0.042310	-0.393417	-0.162730	0.030500	-0.392524	-0.234627	0.869756	-0.738378	-0.208819	0.814793	-0.749766	-0.147457	0.836914	-0.748012	-0.165480	0.892805	-0.737311	-0.351248	0.354422	-0.737999	-0.369512	0.319539	-0.729672	-0.311659	0.294645	-0.735974	-0.300479	0.337331	-0.744962	-0.472213	0.134925	-0.669220	-0.325811	0.029158	-0.750187	-0.273256	0.041966	-0.681716	-0.242857	0.029406	-0.686243	
759	3.7950	-0.309202	1.637674	-0.519583	-0.271650	1.613690	-0.752794	-0.258716	1.607086	-0.319115	-0.173542	1.577153	-0.536518	-0.158775	1.120505	-0.422575	-0.166690	1.114224	-0.647120	-0.215791	1.187291	-0.372953	-0.000000	0.000000	-0.000000	-0.343761	1.151388	-0.467308	-0.000000	0.000000	-0.000000	-0.356724	1.156255	-0.524319	-0.212686	0.909982	-0.335266	-0.191490	0.854817	-0.323718	-0.130836	0.870054	-0.341207	-0.144442	0.928462	-0.355559	-0.292100	0.357337	-0.310041	-0.308654	0.318251	-0.318383	-0.249662	0.302083	-0.319532	-0.238229	0.340404	-0.314899	-0.406250	0.106251	-0.368590	-0.238506	0.025055	-0.302180	-0.193694	0.042251	-0.393481	-0.163135	0.030378	-0.392464	-0.235298	0.863014	-0.738438	-0.209267	0.808136	-0.750029	-0.148033	0.830606	-0.748725	-0.166250	0.886398	-0.737829	-0.352422	0.350186	-0.738698	-0.371156	0.315615	-0.730261	-0.313383	0.290080	-0.736267	-0.301791	0.332602	-0.745397	-0.475708	0.130702	-0.669740	-0.327068	0.028162	-0.751439	-0.274342	0.041912	-0.682179	-0.243475	0.029336	-0.686586	
